<svg width="224" height="40" viewBox="0 0 224 40" fill="none" xmlns="http://www.w3.org/2000/svg">
<path d="M136.141 31.7458H135.01V8.52587H137.244V29.5109H151.234V31.7458H136.141Z" fill="black"/>
<path d="M166.43 8.26465L177.692 31.7458H175.37L172.845 26.6665H159.958L157.519 31.7458H155.168L166.43 8.26465ZM161.032 24.4315H171.742L166.314 13.4021L161.032 24.4315Z" fill="black"/>
<path d="M184.554 31.7458H182.581V8.52587H184.787H192.943C193.784 8.52587 194.626 8.671 195.41 8.99027C196.164 9.30955 196.861 9.77395 197.471 10.3254C198.08 10.9059 198.573 11.5735 198.893 12.3281C199.27 13.1118 199.444 13.9535 199.444 14.7953C199.444 15.637 199.27 16.4787 198.893 17.2624C198.544 18.0751 197.964 18.9749 197.18 19.4973C197.848 19.8166 198.428 20.2229 198.951 20.7164C199.56 21.2968 200.054 21.9934 200.402 22.7481C200.779 23.5608 200.983 24.4025 200.983 25.3023C200.983 26.173 200.779 27.0148 200.402 27.8275C200.054 28.5821 199.56 29.2787 198.951 29.8592C198.341 30.4397 197.616 30.9041 196.832 31.2234C196.019 31.5717 195.178 31.7458 194.307 31.7458H184.554ZM184.787 10.7318V18.8588H192.943C194.017 18.8588 195.119 18.3944 195.932 17.6397C196.774 16.856 197.209 15.8402 197.209 14.7953C197.209 13.7504 196.774 12.7345 195.932 11.9508C195.119 11.1962 194.017 10.7318 192.943 10.7318H184.787ZM184.787 21.0646V29.5109H194.307C195.439 29.5109 196.571 29.0465 197.412 28.2338C198.283 27.4501 198.748 26.4052 198.748 25.3023C198.748 24.1993 198.283 23.1544 197.412 22.3417C196.571 21.529 195.439 21.0646 194.307 21.0646H184.787Z" fill="black"/>
<path d="M221.948 29.3658C221.019 30.3236 219.684 31.0492 218.145 31.4846C217.042 31.8039 215.823 31.949 214.604 31.949C213.472 31.949 212.34 31.8039 211.237 31.5427C210.076 31.2524 209.002 30.788 208.103 30.2075C207.087 29.569 206.303 28.7853 205.752 27.8855L207.638 26.7245C208.393 27.9436 209.873 28.9014 211.789 29.3658C213.676 29.8592 215.765 29.8302 217.536 29.3368C218.726 29.0175 219.684 28.466 220.351 27.7984C221.019 27.1309 221.367 26.2891 221.367 25.3313C221.367 24.8959 221.251 24.5186 220.99 24.1703C220.729 23.793 220.293 23.4447 219.742 23.0964C218.581 22.3998 216.955 21.8483 215.388 21.3259C215.359 21.3259 215.359 21.3259 215.33 21.3259C214.72 21.1227 214.082 20.9195 213.501 20.6873C211.905 20.1649 210.28 19.6134 208.944 18.8297C208.161 18.3653 207.58 17.8429 207.145 17.2334C206.622 16.5368 206.361 15.7241 206.361 14.8533C206.361 13.373 206.913 12.0379 207.958 10.964C208.828 10.0642 210.105 9.3676 211.586 8.96125C213.646 8.38075 216.027 8.35172 218.174 8.9032C219.306 9.16442 220.293 9.5998 221.164 10.1513C222.151 10.7608 222.905 11.5154 223.428 12.4152L221.541 13.5762C220.816 12.4152 219.451 11.5154 217.623 11.051C215.852 10.6157 213.879 10.6157 212.195 11.0801C211.063 11.3993 210.163 11.8928 209.525 12.5313C208.915 13.1699 208.596 13.9535 208.596 14.8533C208.596 15.8692 209.409 16.5077 210.105 16.9141C211.179 17.5817 212.689 18.0751 214.14 18.5685C214.169 18.5685 214.198 18.5685 214.227 18.5975C214.256 18.5975 214.256 18.5975 214.285 18.5975C214.866 18.8007 215.475 19.0039 216.056 19.2071C217.768 19.7876 219.51 20.339 220.903 21.1807C221.715 21.7032 222.354 22.2256 222.789 22.8352C223.341 23.5898 223.602 24.4315 223.602 25.3313C223.602 26.8696 223.022 28.2628 221.948 29.3658Z" fill="black"/>
<path d="M110.287 31.6439H105.954L117.349 7.88477L128.745 31.6439H124.412L122.588 27.946H112.086L110.293 31.6439H110.287ZM113.985 23.9212H120.607L117.261 17.1293L113.985 23.9212Z" fill="#1A1A1A"/>
<path d="M54.4991 19.3563C55.3292 18.2369 55.8197 16.8597 55.8197 15.3629C55.8197 11.6525 52.8137 8.64648 49.1033 8.64648H38.3306V31.6446H50.3044C54.0966 31.6446 57.1655 28.5757 57.1655 24.7836C57.1655 22.5762 56.1216 20.6078 54.4991 19.3563ZM49.1033 12.816C50.512 12.816 51.6502 13.9542 51.6502 15.3629C51.6502 16.7716 50.512 17.9099 49.1033 17.9099C48.9586 17.9099 42.651 17.9099 42.651 17.9099L42.6384 12.816H49.1033ZM50.3044 27.5003H42.651V22.0794H50.3044C51.8012 22.0794 53.0149 23.2931 53.0149 24.7898C53.0149 26.2866 51.8012 27.5003 50.3044 27.5003Z" fill="#1A1A1A"/>
<path d="M71.1578 8.57031C64.7621 8.57031 59.5801 13.7523 59.5801 20.148C59.5801 26.5437 64.7621 31.7257 71.1578 31.7257C77.5535 31.7257 82.7354 26.5437 82.7354 20.148C82.7354 13.7523 77.5535 8.57031 71.1578 8.57031ZM71.1578 27.3612C67.1707 27.3612 63.9445 24.1288 63.9445 20.148C63.9445 16.1672 67.177 12.9347 71.1578 12.9347C75.1386 12.9347 78.371 16.1672 78.371 20.148C78.371 24.1288 75.1386 27.3612 71.1578 27.3612Z" fill="#1A1A1A"/>
<path d="M98.9102 23.4566C101.721 22.3121 103.702 19.5576 103.702 16.3314C103.702 12.0865 100.262 8.64648 96.0174 8.64648H86.0308V31.6446H90.1939V23.9912H94.1182L99.4825 31.6446H104.526L98.9102 23.4566ZM96.0174 19.828H90.1939V12.8411H96.0174C97.948 12.8411 99.514 14.407 99.514 16.3377C99.514 18.2684 97.948 19.8343 96.0174 19.8343V19.828Z" fill="#1A1A1A"/>
<path d="M28.7141 17.9337L19.1685 23.4449V34.0137C19.1685 34.235 19.408 34.3733 19.5996 34.2627L28.6088 29.0613C28.6977 29.0099 28.7526 28.915 28.7526 28.8124V18.0773C28.7526 18.0259 28.739 17.9767 28.7141 17.9337Z" fill="url(#paint0_linear_1_4994)"/>
<path d="M10.0154 18.1579L13.219 20.0075L19.1682 23.4423L28.7139 17.9311C28.6891 17.8882 28.6531 17.8517 28.6087 17.8259L19.3119 12.4584C19.223 12.4071 19.1134 12.4071 19.0245 12.4584L12.8942 15.9977L10.0153 17.6598C9.82367 17.7705 9.82377 18.0472 10.0154 18.1579Z" fill="url(#paint1_linear_1_4994)"/>
<path d="M9.5842 0.287942C9.5842 0.0666144 9.34476 -0.0717155 9.15301 0.0389484L0.143562 5.24056C0.0547286 5.29197 0 5.38684 0 5.48945V34.3442C0 34.3955 0.0136816 34.4449 0.0385307 34.4879L9.5842 28.9768V17.9099V0.287942Z" fill="url(#paint2_linear_1_4994)"/>
<path d="M0.0381857 34.4897C0.0629342 34.5325 0.0988511 34.5691 0.143117 34.5947L9.44019 39.9624C9.52913 40.0137 9.63869 40.0137 9.72762 39.9624L18.7368 34.7609C18.9284 34.6502 18.9284 34.3737 18.7368 34.263L9.58375 28.9785L0.0381857 34.4897Z" fill="url(#paint3_linear_1_4994)"/>
<defs>
<linearGradient id="paint0_linear_1_4994" x1="21.6363" y1="22.0201" x2="26.4283" y2="30.3203" gradientUnits="userSpaceOnUse">
<stop stop-color="#FF00FF"/>
<stop offset="1" stop-color="#9D00FF"/>
</linearGradient>
<linearGradient id="paint1_linear_1_4994" x1="16.844" y1="13.7175" x2="21.636" y2="22.0176" gradientUnits="userSpaceOnUse">
<stop stop-color="#FF00FF"/>
<stop offset="1" stop-color="#9D00FF"/>
</linearGradient>
<linearGradient id="paint2_linear_1_4994" x1="11.0395" y1="28.1364" x2="-1.5987" y2="6.2464" gradientUnits="userSpaceOnUse">
<stop stop-color="#00FFBE"/>
<stop offset="1" stop-color="#603CF7"/>
</linearGradient>
<linearGradient id="paint3_linear_1_4994" x1="11.9082" y1="38.7035" x2="7.11615" y2="30.4033" gradientUnits="userSpaceOnUse">
<stop stop-color="#00FFBE"/>
<stop offset="1" stop-color="#508CFF"/>
</linearGradient>
</defs>
</svg>
