<svg width="96" height="16" viewBox="0 0 96 16" fill="none" xmlns="http://www.w3.org/2000/svg">
<path d="M43.8426 12.5798H42.1201L46.6501 3.13477L51.1801 12.5798H49.4576L48.7326 11.1098H44.5576L43.8451 12.5798H43.8426ZM45.3126 9.50977H47.9451L46.6151 6.80977L45.3126 9.50977Z" fill="#1A1A1A"/>
<path d="M21.665 7.695C21.995 7.25 22.19 6.7025 22.19 6.1075C22.19 4.6325 20.995 3.4375 19.52 3.4375H15.2375V12.58H19.9975C21.505 12.58 22.725 11.36 22.725 9.8525C22.725 8.975 22.31 8.1925 21.665 7.695ZM19.52 5.095C20.08 5.095 20.5325 5.5475 20.5325 6.1075C20.5325 6.6675 20.08 7.12 19.52 7.12C19.4625 7.12 16.955 7.12 16.955 7.12L16.95 5.095H19.52ZM19.9975 10.9325H16.955V8.7775H19.9975C20.5925 8.7775 21.075 9.26 21.075 9.855C21.075 10.45 20.5925 10.9325 19.9975 10.9325Z" fill="#1A1A1A"/>
<path d="M28.2876 3.40723C25.7451 3.40723 23.6851 5.46723 23.6851 8.00973C23.6851 10.5522 25.7451 12.6122 28.2876 12.6122C30.8301 12.6122 32.8901 10.5522 32.8901 8.00973C32.8901 5.46723 30.8301 3.40723 28.2876 3.40723ZM28.2876 10.8772C26.7026 10.8772 25.4201 9.59223 25.4201 8.00973C25.4201 6.42723 26.7051 5.14223 28.2876 5.14223C29.8701 5.14223 31.1551 6.42723 31.1551 8.00973C31.1551 9.59223 29.8701 10.8772 28.2876 10.8772Z" fill="#1A1A1A"/>
<path d="M39.32 9.325C40.4374 8.87 41.2249 7.775 41.2249 6.4925C41.2249 4.805 39.8574 3.4375 38.1699 3.4375H34.2V12.58H35.8549V9.5375H37.415L39.5475 12.58H41.5525L39.32 9.325ZM38.1699 7.8825H35.8549V5.105H38.1699C38.9374 5.105 39.56 5.7275 39.56 6.495C39.56 7.2625 38.9374 7.885 38.1699 7.885V7.8825Z" fill="#1A1A1A"/>
<path d="M11.4148 7.12895L7.62012 9.31981V13.5213C7.62012 13.6092 7.71534 13.6642 7.79153 13.6202L11.373 11.5525C11.4083 11.5321 11.4301 11.4944 11.4301 11.4536V7.18602C11.4301 7.16562 11.4247 7.14602 11.4148 7.12895Z" fill="url(#paint0_linear_1_4951)"/>
<path d="M3.9815 7.21853L5.25504 7.9538L7.62003 9.31925L11.4147 7.12838C11.4049 7.11131 11.3906 7.09679 11.3729 7.08655L7.67714 4.9528C7.64179 4.9324 7.59824 4.9324 7.56288 4.9528L5.1259 6.3598L3.98146 7.02052C3.90527 7.06452 3.90531 7.17454 3.9815 7.21853Z" fill="url(#paint1_linear_1_4951)"/>
<path d="M3.81003 0.114466C3.81003 0.0264814 3.71484 -0.0285092 3.63862 0.0154832L0.0570703 2.08329C0.0217564 2.10373 0 2.14144 0 2.18223V13.6529C0 13.6733 0.00543889 13.6929 0.0153172 13.7101L3.81003 11.5192V7.11975V0.114466Z" fill="url(#paint2_linear_1_4951)"/>
<path d="M0.0151764 13.7104C0.0250147 13.7274 0.0392928 13.742 0.0568898 13.7521L3.75277 15.886C3.78813 15.9064 3.83168 15.9064 3.86704 15.886L7.44846 13.8182C7.52465 13.7742 7.52465 13.6643 7.44846 13.6203L3.80984 11.5195L0.0151764 13.7104Z" fill="url(#paint3_linear_1_4951)"/>
<defs>
<linearGradient id="paint0_linear_1_4951" x1="8.60115" y1="8.75343" x2="10.5061" y2="12.053" gradientUnits="userSpaceOnUse">
<stop stop-color="#FF00FF"/>
<stop offset="1" stop-color="#9D00FF"/>
</linearGradient>
<linearGradient id="paint1_linear_1_4951" x1="6.69607" y1="5.45331" x2="8.60107" y2="8.75287" gradientUnits="userSpaceOnUse">
<stop stop-color="#FF00FF"/>
<stop offset="1" stop-color="#9D00FF"/>
</linearGradient>
<linearGradient id="paint2_linear_1_4951" x1="4.38857" y1="11.1851" x2="-0.635534" y2="2.48314" gradientUnits="userSpaceOnUse">
<stop stop-color="#00FFBE"/>
<stop offset="1" stop-color="#603CF7"/>
</linearGradient>
<linearGradient id="paint3_linear_1_4951" x1="4.73389" y1="15.3855" x2="2.82889" y2="12.0859" gradientUnits="userSpaceOnUse">
<stop stop-color="#00FFBE"/>
<stop offset="1" stop-color="#508CFF"/>
</linearGradient>
</defs>
</svg>
