<svg width="176" height="188" viewBox="0 0 176 188" fill="none" xmlns="http://www.w3.org/2000/svg">
<path d="M95.6724 186.84L7.47554 116.488L50.3924 48.8835L139.025 119.584L96.4063 186.717C96.2469 186.969 95.9049 187.026 95.6724 186.84Z" stroke="#939094"/>
<path d="M23.3155 115.2L23.0743 115.58L23.4255 115.86L33.2621 123.706C33.4619 123.866 33.5094 124.15 33.3722 124.365L28.2768 132.374C28.1172 132.625 27.7755 132.682 27.5431 132.497L8.03733 116.937C7.83756 116.778 7.7901 116.494 7.92727 116.278L19.1979 98.5636C19.3574 98.3129 19.6992 98.2558 19.9315 98.4411L28.8982 105.594C29.098 105.753 29.1454 106.037 29.0083 106.253L23.3155 115.2Z" stroke="#939094"/>
<path d="M123.58 121.115L123.823 120.735L123.469 120.455L113.243 112.364C113.042 112.205 112.993 111.919 113.131 111.703L118.224 103.698C118.384 103.447 118.726 103.39 118.958 103.575L138.464 119.135C138.664 119.294 138.711 119.578 138.574 119.794L127.306 137.504C127.146 137.756 126.803 137.812 126.571 137.625L117.994 130.724C117.795 130.564 117.749 130.281 117.886 130.066L123.58 121.115Z" stroke="#939094"/>
<path d="M54.4283 66.1555L54.7289 65.695L55.1587 66.0379L64.9024 73.8102C65.1403 74 65.4911 73.9351 65.6453 73.6728L70.4767 65.4536C70.6028 65.2391 70.552 64.9645 70.3575 64.8093L50.8324 49.2346C50.5991 49.0485 50.2559 49.1069 50.0972 49.3596L38.9251 67.1525C38.7898 67.368 38.8379 67.6506 39.0368 67.8093L48.0179 74.9733C48.2484 75.1572 48.5871 75.1026 48.7483 74.8557L54.4283 66.1555Z" stroke="#939094"/>
<path d="M92.0732 169.916L91.7726 170.377L91.3427 170.034L81.599 162.262C81.3612 162.072 81.0104 162.137 80.8562 162.399L76.0247 170.618C75.8986 170.833 75.9495 171.107 76.144 171.262L95.669 186.837C95.9023 187.023 96.2456 186.965 96.4043 186.712L107.576 168.919C107.712 168.704 107.664 168.421 107.465 168.262L98.4836 161.098C98.2531 160.915 97.9143 160.969 97.7531 161.216L92.0732 169.916Z" stroke="#939094"/>
<path d="M95.9946 187.262L123.712 180.583" stroke="#939094" stroke-linecap="round"/>
<path d="M102.009 178.103L117.49 174.566L156.168 113.871L143.073 103.535" stroke="#939094"/>
<path d="M59.113 56.0392L78.9852 52.5141L137.138 99.102" stroke="#939094"/>
<path d="M117.492 174.566L122.878 180.04C123.328 180.498 124.087 180.419 124.433 179.878L167.524 112.484L78.2065 41.6352L70.4024 54.1119" stroke="#939094"/>
<path d="M64.2378 54.9208L77.7769 65.128" stroke="#939094"/>
<path d="M69.2373 54.2296L97.8444 75.2057" stroke="#939094"/>
<line x1="138.307" y1="119.88" x2="155.923" y2="113.766" stroke="#939094"/>
<path d="M141.627 110.973L128.058 100.02C128.058 100.02 137.686 100.687 142.419 96.8545C143.826 103.237 141.627 110.973 141.627 110.973Z" stroke="#939094"/>
<path d="M76.1227 104.134C76.0881 104.138 76.0535 104.143 76.0189 104.147C73.6796 105.548 71.3453 106.943 69.0161 108.331C68.951 108.375 68.8899 108.453 68.9021 108.557C68.865 111.631 68.8098 114.702 68.7367 117.769C68.7611 117.977 68.935 118.112 69.0652 118.025C71.3612 116.653 73.6636 115.286 75.9724 113.924C78.2265 115.685 80.4741 117.441 82.7153 119.192C82.8505 119.297 83.0499 119.201 83.0255 118.994C83.0986 115.927 83.1588 112.849 83.2061 109.762C83.194 109.658 83.1665 109.574 83.0892 109.514C80.8094 107.732 78.5232 105.946 76.2305 104.155C76.1918 104.125 76.1766 104.144 76.1227 104.134Z" fill="#393839"/>
<path d="M57.5105 109.438C57.3752 109.332 57.2145 109.459 57.2002 109.636C57.1529 112.723 57.0991 115.805 57.0389 118.883C57.0318 118.971 57.0745 119.036 57.1518 119.097C63.2828 123.887 69.4138 128.677 75.5448 133.467C75.5835 133.497 75.6028 133.512 75.6567 133.523C75.7081 130.271 75.7582 127.008 75.8069 123.733C69.7017 118.963 63.6028 114.198 57.5105 109.438Z" fill="#393839"/>
<path d="M82.7142 119.631C80.4182 121.003 78.1158 122.371 75.8069 123.733C75.7582 127.008 75.7081 130.271 75.6567 133.523C75.6913 133.518 75.7258 133.514 75.7411 133.494C78.0934 132.103 80.4405 130.718 82.7826 129.34C82.8284 129.282 82.8701 129.188 82.8966 129.115C82.9337 126.04 82.9824 122.965 83.0426 119.888C83.0376 119.695 82.8637 119.559 82.7142 119.631Z" fill="#393839"/>
<path d="M69.0652 118.025C71.3612 116.653 73.6636 115.286 75.9724 113.924C76.0212 110.649 76.0712 107.385 76.1227 104.134C76.0881 104.138 76.0535 104.143 76.0189 104.147C73.6796 105.548 71.3453 106.943 69.0161 108.331C68.951 108.375 68.8899 108.453 68.9021 108.557C68.865 111.631 68.8098 114.702 68.7367 117.769C68.7611 117.977 68.935 118.112 69.0652 118.025Z" fill="#393839"/>
<path d="M75.6567 133.523C75.6913 133.518 75.7258 133.514 75.7411 133.494C78.0934 132.103 80.4405 130.718 82.7826 129.34C82.8284 129.282 82.8701 129.188 82.8966 129.115C82.9337 126.04 82.9824 122.965 83.0426 119.888C83.0376 119.695 82.8637 119.559 82.7142 119.631C80.4182 121.003 78.1158 122.371 75.8069 123.733C75.7582 127.008 75.7081 130.271 75.6567 133.523Z" fill="#393839"/>
<path d="M115.597 17.6154L115.474 24.9606" stroke="#939094"/>
<path d="M115.597 17.6152L107.423 20.5355" stroke="#939094"/>
<path d="M107.13 20.4234L104.937 9.47136L108.178 1.00013L116.792 5.68363L118.817 20.3325L115.522 25.3152L107.13 20.4234Z" stroke="#939094"/>
<path d="M116.815 5.65014L114.366 9.41688L115.596 17.616L118.816 20.3332" stroke="#939094"/>
<path d="M108.178 1.00013L114.366 9.4162" stroke="#939094"/>
<path d="M104.925 9.50023L114.073 9.30455" stroke="#939094"/>
<path d="M156.778 33.7146L157.228 33.4961C157.32 33.686 157.283 33.9134 157.136 34.0643C156.988 34.2153 156.761 34.2571 156.57 34.1689L156.778 33.7146ZM153.671 27.32L153.221 27.5385C153.137 27.3655 153.16 27.1596 153.28 27.0089C153.399 26.8583 153.595 26.7897 153.782 26.8325L153.671 27.32ZM165.873 33.5672L166.294 33.2969L166.484 33.5925L166.27 33.8714L165.873 33.5672ZM150.573 53.527L150.97 53.8312L150.847 53.9914L150.647 54.0215L150.573 53.527ZM147.627 29.508L147.52 29.0196L147.684 28.9838L147.836 29.0537L147.627 29.508ZM163.265 29.508L163.376 29.0205L163.575 29.0659L163.686 29.2377L163.265 29.508ZM132.945 39.3327L132.471 39.1742L132.502 39.0805L132.567 39.0057L132.945 39.3327ZM139.991 31.1806L139.612 30.8536L139.721 30.7278L139.884 30.6922L139.991 31.1806ZM156.329 33.9331L153.221 27.5385L154.121 27.1014L157.228 33.4961L156.329 33.9331ZM166.27 33.8714L150.97 53.8312L150.176 53.2229L165.476 33.263L166.27 33.8714ZM150.647 54.0215L134.774 56.4124L134.625 55.4235L150.498 53.0326L150.647 54.0215ZM147.836 29.0537L156.987 33.2603L156.57 34.1689L147.418 29.9623L147.836 29.0537ZM153.782 26.8325L163.376 29.0205L163.154 29.9955L153.56 27.8074L153.782 26.8325ZM163.686 29.2377L166.294 33.2969L165.453 33.8375L162.844 29.7783L163.686 29.2377ZM129.716 47.421L132.471 39.1742L133.419 39.4911L130.664 47.7378L129.716 47.421ZM132.567 39.0057L139.612 30.8536L140.369 31.5075L133.323 39.6596L132.567 39.0057ZM139.884 30.6922L147.52 29.0196L147.734 29.9964L140.098 31.669L139.884 30.6922Z" fill="#939094"/>
<path d="M134.7 55.9185L125.702 55.9158L125.847 49.8232L130.191 47.58L136.035 47.6776L134.7 55.9185Z" stroke="#939094"/>
<path d="M136.034 47.6775L150.903 41.5809L156.779 33.7151" stroke="#939094"/>
<path d="M150.573 53.5277L150.904 41.581" stroke="#939094"/>
<path d="M165.955 33.4715L156.791 33.4716" stroke="#939094"/>
<path d="M125.735 49.7253L126.885 45.2572L140.137 31.3909L153.691 27.3424" stroke="#939094"/>
</svg>
