<svg width="344" height="225" viewBox="0 0 344 225" fill="none" xmlns="http://www.w3.org/2000/svg">
<ellipse cx="172" cy="210.5" rx="88" ry="14.5" fill="white"/>
<path d="M260 211H84L0 0H344L260 211Z" fill="url(#paint0_linear_750_11190)" fill-opacity="0.25"/>
<path d="M220.174 152.313C212.906 159.588 204.891 164.705 197.825 167.111C190.726 169.528 184.753 169.163 181.358 165.771C177.963 162.379 177.592 156.407 180.003 149.305C182.403 142.238 187.512 134.217 194.78 126.943C202.048 119.668 210.063 114.551 217.129 112.145C224.228 109.728 230.201 110.093 233.596 113.485C236.991 116.876 237.362 122.849 234.951 129.951C232.551 137.018 227.442 145.039 220.174 152.313Z" fill="url(#paint1_linear_750_11190)" fill-opacity="0.25" stroke="#939094"/>
<path d="M215.43 147.57C208.162 154.844 200.146 159.961 193.081 162.367C185.982 164.784 180.008 164.419 176.614 161.028C173.219 157.636 172.848 151.663 175.259 144.562C177.658 137.494 182.768 129.474 190.036 122.199C197.304 114.924 205.319 109.808 212.384 107.402C219.484 104.984 225.457 105.349 228.852 108.741C232.247 112.133 232.617 118.106 230.206 125.207C227.807 132.275 222.698 140.295 215.43 147.57Z" stroke="#939094"/>
<path d="M92.4263 91.0586L181.402 165.728" stroke="#939094"/>
<path d="M158.013 25.4087L233.951 113.92" stroke="#939094"/>
<path d="M165.327 53L187.505 76.5" stroke="#939094" stroke-linecap="round"/>
<path d="M172.005 68.5L194.855 91.5" stroke="#939094" stroke-linecap="round"/>
<path d="M139.892 72.8952C130.765 82.0303 120.844 88.6092 112.199 91.8734C103.507 95.1554 96.3065 95.0221 92.3815 91.1007C88.4565 87.1793 88.3165 79.9793 91.5905 71.284C94.8467 62.6359 101.416 52.7086 110.543 43.5735C119.67 34.4384 129.591 27.8595 138.236 24.5953C146.928 21.3133 154.128 21.4466 158.053 25.368C161.978 29.2893 162.118 36.4894 158.845 45.1847C155.588 53.8328 149.019 63.7601 139.892 72.8952Z" stroke="#939094"/>
<path d="M201.512 140C198.717 143.913 197.621 148.029 197.219 148.944C196.481 150.622 194.066 151.74 193.127 149.504C192.78 148.678 193.127 146.708 194.804 146.149C195.648 145.868 195.922 145.031 196.481 143.913" stroke="#939094" stroke-linecap="round"/>
<path d="M175.089 89.1683C175.046 89.1604 175.002 89.1635 174.96 89.1783L166.157 92.2818C166.072 92.3115 166.01 92.3839 165.994 92.4716L164.864 98.5218L164.333 101.363C164.298 101.552 164.481 101.709 164.662 101.645L167.696 100.575L173.329 98.5893L180.308 104.567C180.454 104.692 180.681 104.612 180.717 104.423L182.377 95.5317C182.394 95.444 182.362 95.3541 182.294 95.296L175.205 89.2241C175.171 89.1951 175.131 89.1762 175.089 89.1683Z" fill="#393839"/>
<path d="M164.253 101.788L152.616 91.8214C152.47 91.6962 152.243 91.7761 152.208 91.9653L150.547 100.857C150.531 100.945 150.563 101.035 150.63 101.093L169.686 117.413C169.719 117.442 169.76 117.461 169.802 117.469L171.562 108.048L164.253 101.788Z" fill="#393839"/>
<path d="M180.229 104.993L171.562 108.048L169.802 117.469C169.845 117.477 169.889 117.474 169.931 117.46L178.734 114.356C178.819 114.326 178.881 114.254 178.897 114.166L180.558 105.275C180.593 105.085 180.41 104.929 180.229 104.993Z" fill="#393839"/>
<path d="M164.662 101.645L167.696 100.575L173.329 98.5893L175.089 89.1683C175.046 89.1604 175.002 89.1635 174.959 89.1783L166.157 92.2818C166.072 92.3115 166.01 92.3839 165.994 92.4716L164.864 98.5218L164.333 101.363C164.298 101.552 164.481 101.709 164.662 101.645Z" fill="#393839"/>
<path d="M169.802 117.469C169.845 117.477 169.889 117.474 169.931 117.459L178.734 114.356C178.819 114.326 178.881 114.254 178.897 114.166L180.558 105.274C180.593 105.085 180.41 104.929 180.229 104.993L171.562 108.048L169.802 117.469Z" fill="#393839"/>
<defs>
<linearGradient id="paint0_linear_750_11190" x1="159" y1="156" x2="159" y2="210.5" gradientUnits="userSpaceOnUse">
<stop stop-color="white" stop-opacity="0"/>
<stop offset="1" stop-color="white"/>
</linearGradient>
<linearGradient id="paint1_linear_750_11190" x1="194.215" y1="151.722" x2="180.54" y2="165.41" gradientUnits="userSpaceOnUse">
<stop stop-color="white" stop-opacity="0"/>
<stop offset="1" stop-color="white"/>
</linearGradient>
</defs>
</svg>
