<svg xmlns="http://www.w3.org/2000/svg" width="123" height="123" viewBox="0 0 123 123" fill="none">
  <path d="M82.6406 56.6953C84.2166 56.6953 85.5234 58.0022 85.5234 59.5781C85.5234 61.1541 84.2166 62.4609 82.6406 62.4609C81.0647 62.4609 79.7578 61.1541 79.7578 59.5781C79.7578 58.0022 81.0647 56.6953 82.6406 56.6953Z" fill="#181A2A"/>
  <path d="M40.3594 56.6953C41.9353 56.6953 43.2422 58.0022 43.2422 59.5781C43.2422 61.1541 41.9353 62.4609 40.3594 62.4609C38.7834 62.4609 37.4766 61.1541 37.4766 59.5781C37.4766 58.0022 38.7834 56.6953 40.3594 56.6953Z" fill="#181A2A"/>
  <path d="M53 76C53 71.02 56.7967 67 61.5 67C66.2033 67 70 71.02 70 76" stroke="#181A2A" stroke-width="3" stroke-miterlimit="10" stroke-linecap="round" stroke-linejoin="round"/>
  <path d="M82.6406 5.76562H17.2969V117.234H105.703V28.8281" stroke="#181A2A" stroke-width="3" stroke-miterlimit="10" stroke-linecap="round" stroke-linejoin="round"/>
  <path d="M82.6406 5.76562L105.622 28.8281H82.6406V15.375" stroke="#181A2A" stroke-width="3" stroke-miterlimit="10" stroke-linecap="round" stroke-linejoin="round"/>
  <path d="M79.7578 59.5781C79.7578 61.1541 81.0647 62.4609 82.6406 62.4609C84.2166 62.4609 85.5234 61.1541 85.5234 59.5781C85.5234 58.0022 84.2166 56.6953 82.6406 56.6953C81.0647 56.6953 79.7578 58.0022 79.7578 59.5781Z" stroke="#181A2A" stroke-miterlimit="10" stroke-linecap="round" stroke-linejoin="round"/>
  <path d="M43.2422 59.5781C43.2422 61.1541 41.9353 62.4609 40.3594 62.4609C38.7834 62.4609 37.4766 61.1541 37.4766 59.5781C37.4766 58.0022 38.7834 56.6953 40.3594 56.6953C41.9353 56.6953 43.2422 58.0022 43.2422 59.5781Z" stroke="#181A2A" stroke-miterlimit="10" stroke-linecap="round" stroke-linejoin="round"/>
</svg>