<svg width="100" height="20" viewBox="0 0 100 20" fill="none" xmlns="http://www.w3.org/2000/svg">
<path d="M20.0709 15.8729H19.5049V4.26294H20.6223V14.7555H27.6174V15.8729H20.0709Z" fill="black"/>
<path d="M35.2152 4.13232L40.846 15.8729H39.685L38.4225 13.3332H31.9789L30.7599 15.8729H29.5844L35.2152 4.13232ZM32.5159 12.2158H37.871L35.1572 6.70103L32.5159 12.2158Z" fill="black"/>
<path d="M44.2773 15.8729H43.2905V4.26294H44.3934H48.4714C48.8923 4.26294 49.3132 4.3355 49.705 4.49514C50.0823 4.65477 50.4306 4.88697 50.7354 5.16271C51.0401 5.45296 51.2869 5.78675 51.4465 6.16407C51.6352 6.55591 51.7222 6.97677 51.7222 7.39763C51.7222 7.81849 51.6352 8.23935 51.4465 8.63119C51.2723 9.03754 50.9821 9.48743 50.5903 9.74865C50.924 9.90829 51.2143 10.1115 51.4755 10.3582C51.7803 10.6484 52.027 10.9967 52.2011 11.374C52.3898 11.7804 52.4914 12.2013 52.4914 12.6511C52.4914 13.0865 52.3898 13.5074 52.2011 13.9137C52.027 14.2911 51.7803 14.6394 51.4755 14.9296C51.1708 15.2199 50.8079 15.4521 50.4161 15.6117C50.0098 15.7858 49.5889 15.8729 49.1535 15.8729H44.2773ZM44.3934 5.36588V9.42938H48.4714C49.0084 9.42938 49.5599 9.19718 49.9662 8.81985C50.3871 8.42802 50.6048 7.92008 50.6048 7.39763C50.6048 6.87518 50.3871 6.36724 49.9662 5.97541C49.5599 5.59808 49.0084 5.36588 48.4714 5.36588H44.3934ZM44.3934 10.5323V14.7555H49.1535C49.7195 14.7555 50.2855 14.5233 50.7064 14.1169C51.1417 13.7251 51.3739 13.2026 51.3739 12.6511C51.3739 12.0997 51.1417 11.5772 50.7064 11.1709C50.2855 10.7645 49.7195 10.5323 49.1535 10.5323H44.3934Z" fill="black"/>
<path d="M62.9739 14.6829C62.5095 15.1618 61.842 15.5246 61.0728 15.7423C60.5213 15.9019 59.9118 15.9745 59.3023 15.9745C58.7363 15.9745 58.1703 15.9019 57.6188 15.7713C57.0383 15.6262 56.5014 15.394 56.0515 15.1038C55.5435 14.7845 55.1517 14.3926 54.876 13.9428L55.8193 13.3623C56.1966 13.9718 56.9367 14.4507 57.8946 14.6829C58.8379 14.9296 59.8828 14.9151 60.768 14.6684C61.363 14.5087 61.842 14.233 62.1757 13.8992C62.5095 13.5654 62.6837 13.1446 62.6837 12.6657C62.6837 12.448 62.6256 12.2593 62.495 12.0852C62.3644 11.8965 62.1467 11.7223 61.871 11.5482C61.2905 11.1999 60.4778 10.9242 59.6941 10.6629C59.6796 10.6629 59.6796 10.6629 59.6651 10.6629C59.3603 10.5613 59.0411 10.4598 58.7508 10.3437C57.9526 10.0824 57.1399 9.8067 56.4723 9.41486C56.0805 9.18266 55.7903 8.92144 55.5726 8.61668C55.3113 8.26838 55.1807 7.86203 55.1807 7.42666C55.1807 6.68652 55.4565 6.01895 55.9789 5.48198C56.4143 5.0321 57.0528 4.6838 57.793 4.48062C58.8234 4.19037 60.0134 4.17586 61.0873 4.4516C61.6533 4.58221 62.1467 4.7999 62.5821 5.07563C63.0755 5.3804 63.4528 5.75772 63.7141 6.20761L62.7708 6.78811C62.4079 6.20761 61.7259 5.75772 60.8116 5.52552C59.9263 5.30783 58.9395 5.30783 58.0977 5.54003C57.5318 5.69967 57.0819 5.94638 56.7626 6.26566C56.4578 6.58493 56.2982 6.97677 56.2982 7.42666C56.2982 7.93459 56.7045 8.25387 57.0528 8.45704C57.5898 8.79083 58.3444 9.03754 59.0701 9.28425C59.0846 9.28425 59.0991 9.28425 59.1136 9.29876C59.1281 9.29876 59.1281 9.29876 59.1426 9.29876C59.4329 9.40035 59.7376 9.50194 60.0279 9.60353C60.8841 9.89378 61.7549 10.1695 62.4515 10.5904C62.8578 10.8516 63.1771 11.1128 63.3948 11.4176C63.6705 11.7949 63.8011 12.2158 63.8011 12.6657C63.8011 13.4348 63.5109 14.1314 62.9739 14.6829Z" fill="black"/>
<path d="M73.3418 3.91406V16H71.0674V3.91406H73.3418ZM77.0938 3.91406V5.71533H67.3569V3.91406H77.0938ZM83.2446 10.6128H80.1567L80.1401 9.00244H82.7881C83.2419 9.00244 83.6209 8.9388 83.9253 8.81152C84.2297 8.68424 84.4593 8.49886 84.6143 8.25537C84.7747 8.01188 84.855 7.71582 84.855 7.36719C84.855 6.97982 84.7803 6.66439 84.6309 6.4209C84.487 6.17741 84.2601 6.00033 83.9502 5.88965C83.6403 5.77344 83.2474 5.71533 82.7715 5.71533H80.8955V16H78.6128V3.91406H82.7715C83.4577 3.91406 84.0692 3.98047 84.606 4.11328C85.1483 4.24056 85.6076 4.43978 85.9839 4.71094C86.3602 4.9821 86.6452 5.32243 86.8389 5.73193C87.0381 6.14144 87.1377 6.62842 87.1377 7.19287C87.1377 7.69092 87.0215 8.15023 86.7891 8.5708C86.5622 8.98584 86.2108 9.3234 85.7349 9.5835C85.2645 9.84359 84.6668 9.993 83.9419 10.0317L83.2446 10.6128ZM83.145 16H79.4844L80.439 14.207H83.145C83.5988 14.207 83.9723 14.1323 84.2656 13.9829C84.5645 13.8335 84.7858 13.6287 84.9297 13.3687C85.0791 13.103 85.1538 12.7987 85.1538 12.4556C85.1538 12.0793 85.0874 11.7528 84.9546 11.4761C84.8273 11.1994 84.6226 10.9863 84.3403 10.8369C84.0636 10.6875 83.6984 10.6128 83.2446 10.6128H80.8706L80.8872 9.00244H83.9087L84.4316 9.625C85.1289 9.63053 85.6961 9.76888 86.1333 10.04C86.576 10.3112 86.9025 10.6598 87.1128 11.0859C87.3231 11.512 87.4282 11.9714 87.4282 12.4639C87.4282 13.2386 87.2594 13.8888 86.9219 14.4146C86.5898 14.9403 86.1029 15.3359 85.4609 15.6016C84.8245 15.8672 84.0526 16 83.145 16ZM94.21 5.74854L90.7651 16H88.3496L92.8652 3.91406H94.4092L94.21 5.74854ZM97.0903 16L93.6289 5.74854L93.4214 3.91406H94.9736L99.5142 16H97.0903ZM96.9326 11.5093V13.3105H90.4497V11.5093H96.9326Z" fill="black"/>
<path d="M14.3571 8.96636L9.58423 11.7219V17.0063C9.58423 17.117 9.704 17.1862 9.79982 17.1308L14.3044 14.5301C14.3489 14.5045 14.3763 14.457 14.3763 14.4057V9.03814C14.3763 9.01249 14.3695 8.98784 14.3571 8.96636Z" fill="url(#paint0_linear_65_417)"/>
<path d="M5.00771 9.07895L6.60952 10.0037L9.58412 11.7212L14.357 8.96557C14.3445 8.94409 14.3266 8.92583 14.3043 8.91295L9.65595 6.2292C9.61148 6.20355 9.5567 6.20355 9.51224 6.2292L6.44709 7.99887L5.00766 8.82991C4.91183 8.88524 4.91188 9.02362 5.00771 9.07895Z" fill="url(#paint1_linear_65_417)"/>
<path d="M4.7921 0.143971C4.7921 0.0333072 4.67238 -0.0358578 4.57651 0.0194742L0.0717808 2.62028C0.0273643 2.64598 0 2.69342 0 2.74473V17.1721C0 17.1977 0.00684082 17.2224 0.0192654 17.244L4.7921 14.4884V8.95494V0.143971Z" fill="url(#paint2_linear_65_417)"/>
<path d="M0.0190929 17.2444C0.0314671 17.2658 0.0494256 17.284 0.0715584 17.2969L4.7201 19.9807C4.76456 20.0064 4.81934 20.0064 4.86381 19.9807L9.36838 17.38C9.46421 17.3246 9.46421 17.1864 9.36838 17.131L4.79188 14.4888L0.0190929 17.2444Z" fill="url(#paint3_linear_65_417)"/>
<defs>
<linearGradient id="paint0_linear_65_417" x1="10.8181" y1="11.0096" x2="13.2142" y2="15.1597" gradientUnits="userSpaceOnUse">
<stop stop-color="#FF00FF"/>
<stop offset="1" stop-color="#9D00FF"/>
</linearGradient>
<linearGradient id="paint1_linear_65_417" x1="8.42199" y1="6.85873" x2="10.818" y2="11.0088" gradientUnits="userSpaceOnUse">
<stop stop-color="#FF00FF"/>
<stop offset="1" stop-color="#9D00FF"/>
</linearGradient>
<linearGradient id="paint2_linear_65_417" x1="5.51977" y1="14.0682" x2="-0.79935" y2="3.1232" gradientUnits="userSpaceOnUse">
<stop stop-color="#00FFBE"/>
<stop offset="1" stop-color="#603CF7"/>
</linearGradient>
<linearGradient id="paint3_linear_65_417" x1="5.9541" y1="19.3512" x2="3.55807" y2="15.2011" gradientUnits="userSpaceOnUse">
<stop stop-color="#00FFBE"/>
<stop offset="1" stop-color="#508CFF"/>
</linearGradient>
</defs>
</svg>
