<svg xmlns="http://www.w3.org/2000/svg" width="40" height="40" viewBox="0 0 40 40" fill="none">
  <g clip-path="url(#token)">
  <path d="M23.035 1.24666C21.4066 -0.361671 18.625 -0.395004 16.93 1.28166L0.0783081 20L16.965 38.7517C17.7766 39.5567 18.8566 40 20 40C21.1433 40 22.2233 39.5567 23.0683 38.7167L39.98 20L23.035 1.24666ZM37.335 19.5583L20.8333 24.1333V1.84333C21.2066 1.96166 21.56 2.13666 21.8466 2.41666L37.335 19.5583ZM18.1366 2.43166C18.4283 2.145 18.7866 1.96666 19.1666 1.84666V24.1317L2.71831 19.5583L18.1366 2.43166ZM3.73331 21.5683L19.1666 25.86V38.1683C18.7916 38.055 18.4433 37.87 18.1683 37.6L3.73331 21.5683ZM21.8633 37.5667C21.5716 37.855 21.2133 38.0467 20.8333 38.1633V25.86L36.3166 21.5667L21.8633 37.565V37.5667Z" fill="#181A2A" stroke="#181A2A" stroke-linejoin="round"/>
  </g>
  <defs>
  <clipPath id="token">
  <rect width="40" height="40" fill="white"/>
  </clipPath>
  </defs>
</svg>